<?xml version="1.0" encoding="UTF-8" standalone="no"?><!-- Generator: Gravit.io --><svg xmlns="http://www.w3.org/2000/svg" xmlns:xlink="http://www.w3.org/1999/xlink" style="isolation:isolate" viewBox="0 0 706 209" width="706pt" height="209pt"><defs><clipPath id="_clipPath_LkEYJfSL1US3oSCTsM6zlE8fd4huN6Kc"><rect width="706" height="209"/></clipPath></defs><g clip-path="url(#_clipPath_LkEYJfSL1US3oSCTsM6zlE8fd4huN6Kc)"><clipPath id="_clipPath_BCaeCB1LLO6CZa3RDN5W4RqXD2v1IT97"><rect x="-42" y="-200" width="792" height="612" transform="matrix(1,0,0,1,0,0)" fill="rgb(255,255,255)"/></clipPath><g clip-path="url(#_clipPath_BCaeCB1LLO6CZa3RDN5W4RqXD2v1IT97)"><clipPath id="_clipPath_Se26tYz4Pr732PsDbCOid4ThBmTv4Agt"><path d=" M -42 -200 L 750 -200 L 750 412 L -42 412 L -42 -200 Z " fill="rgb(255,255,255)"/></clipPath><g clip-path="url(#_clipPath_Se26tYz4Pr732PsDbCOid4ThBmTv4Agt)"><path d=" M 100.342 192.82 L 59.667 15.543 L 109.982 15.543 L 121.268 88.429 C 123.384 102.771 124.559 116.878 126.44 131.22 L 126.911 131.22 C 129.026 116.878 129.732 102.771 132.318 88.429 L 145.485 15.543 L 197.446 15.543 L 149.246 192.82 L 100.342 192.82 Z " fill="rgb(255,255,255)"/><path d=" M 206.149 15.543 L 254.113 15.543 L 254.113 192.82 L 206.149 192.82 L 206.149 15.543 Z " fill="rgb(255,255,255)"/><path d=" M 316.932 97.599 C 329.629 97.599 336.447 86.548 336.447 75.028 C 336.447 59.51 327.042 52.927 313.876 53.632 L 313.876 97.364 L 316.932 97.599 Z  M 340.209 192.821 L 313.641 118.995 L 313.171 119.466 C 313.406 128.164 313.876 136.864 313.876 145.562 L 313.876 192.821 L 265.912 192.821 L 265.912 15.543 L 312.231 15.543 C 353.846 15.543 383.94 27.769 383.94 74.557 C 383.94 94.072 375.477 111.471 356.432 118.995 L 392.17 192.821 L 340.209 192.821 Z " fill="rgb(255,255,255)"/><path d=" M 396.344 92.235 L 453.948 92.235 L 453.948 130.323 L 396.344 130.323 L 396.344 92.235 Z " fill="rgb(255,255,255)"/><path d=" M 586.787 15.543 L 586.787 131.455 C 586.787 152.851 582.084 195.877 526.597 195.877 C 471.109 195.877 466.406 152.851 466.406 131.455 L 466.406 15.543 L 514.37 15.543 L 514.37 126.988 C 514.37 131.69 514.136 137.803 515.547 142.506 C 516.957 147.444 520.014 151.205 526.597 151.205 C 533.415 151.205 536.472 147.444 537.647 142.741 C 539.058 137.803 538.823 131.69 538.823 127.224 L 538.823 15.543 L 586.787 15.543 Z " fill="rgb(255,255,255)"/><path d=" M 596.946 133.101 C 603.529 142.976 615.05 152.851 627.276 152.851 C 633.86 152.851 641.384 148.855 641.384 141.096 C 641.384 136.864 639.972 133.807 637.621 131.221 C 635.505 128.634 632.683 126.518 629.628 124.402 C 620.222 117.114 611.994 110.294 605.88 101.831 C 600.003 93.602 596.241 83.727 596.241 70.796 C 596.241 50.105 609.407 12.487 650.317 12.487 C 661.839 12.487 674.3 16.014 684.41 21.421 L 684.41 75.263 C 678.766 66.329 667.246 56.218 656.195 56.218 C 650.552 56.218 643.734 60.215 643.734 67.034 C 643.734 70.796 645.85 74.087 648.436 76.909 C 651.022 79.73 654.55 82.081 657.136 84.197 C 667.246 91.251 675.24 97.834 680.647 105.829 C 686.29 113.822 689.347 123.226 689.347 136.628 C 689.347 169.544 666.306 195.877 632.919 195.877 C 620.692 195.877 608.231 193.29 596.946 188.589 L 596.946 133.101 Z " fill="rgb(255,255,255)"/></g><linearGradient id="_lgradient_0" x1="0.0000014792588189926903" y1="0.5000028730500548" x2="1.000000986172546" y2="0.5000028730500548" gradientTransform="matrix(380.258,0,0,38.078,16.101,92.248)" gradientUnits="userSpaceOnUse"><stop offset="0%" stop-opacity="1" style="stop-color:rgb(0,217,222)"/><stop offset="10%" stop-opacity="1" style="stop-color:rgb(89,222,145)"/><stop offset="20%" stop-opacity="1" style="stop-color:rgb(190,227,56)"/><stop offset="30.000000000000004%" stop-opacity="1" style="stop-color:rgb(250,217,7)"/><stop offset="40%" stop-opacity="1" style="stop-color:rgb(236,180,27)"/><stop offset="50%" stop-opacity="1" style="stop-color:rgb(223,142,46)"/><stop offset="60%" stop-opacity="1" style="stop-color:rgb(237,117,62)"/><stop offset="70%" stop-opacity="1" style="stop-color:rgb(250,91,77)"/><stop offset="80%" stop-opacity="1" style="stop-color:rgb(249,62,84)"/><stop offset="89.99999999999999%" stop-opacity="1" style="stop-color:rgb(239,31,87)"/><stop offset="99.99999999999999%" stop-opacity="1" style="stop-color:rgb(230,0,89)"/></linearGradient><path d=" M 16.101 130.326 L 396.359 130.326 L 396.359 92.248 L 16.101 92.248 L 16.101 130.326 Z " fill="url(#_lgradient_0)"/></g></g></svg>