<?xml version="1.0" encoding="UTF-8"?>
<!-- Created with Inkscape (http://www.inkscape.org/) -->
<svg
  viewBox="0 0 475.59 432.04"
  xmlns="http://www.w3.org/2000/svg"
  preserveAspectRatio="xMidYMid meet"
  width="475.59"
  height="432.04"
>
  <g transform="matrix(1.3333 0 0 -1.3333 -170.89 743.69)">
    <g transform="translate(250.9 479.02)">
      <path
        d="m0 0 50.534-91.818 5.008-9.096 5.003 9.096 50.522 91.818 4.828 8.771h-10.055l-6e-3 -0.011h-94.603l4.822-8.76h85.019l-45.53-82.721-45.52 82.721-4.82 8.76-7e-3 0.011h-10.012l4.828-8.771z"
        fill="#fff"
      />
    </g>
    <g transform="translate(467.19 543.84)">
      <path
        d="m0 0-4.827-8.773-2.839-5.151-4.828-8.773-132.28-240.34-5.006-9.096-2.941-5.346-5.005-9.093-2.941-5.344-2.94 5.344-5.009 9.093-2.941 5.346-5.006 9.096-109.1 198.22-4.828 8.771-2.836 5.154-4.829 8.772-2.834 5.152-4.831 8.772-3.024 5.498h264.56l-116.39-211.46-93.205 169.34-4.826 8.771-2.839 5.154h169.77l-2.834-5.154-6e-3 -0.012-4.822-8.759h0.101l-53.476-97.161-5.006-9.095-2.942-5.344-2.94 5.344-5.007 9.095-53.476 97.161h-9e-3l-4.828 8.771h-10.014l3e-3 -4e-3h-5.903l-2e-3 4e-3h-10.014l4.832-8.771 66.457-120.7 5.006-9.095 2.943-5.344 5.005-9.098 2.94-5.342 5.007-9.095 5.005 9.095 2.943 5.342 5.005 9.098 2.942 5.344 5.007 9.095 66.381 120.7 4.825 8.771 2.834 5.154 4.825 8.772 2.832 5.152 4.826 8.772h-246.61l4.828-8.772 2.837-5.152 4.828-8.772 2.837-5.154 4.827-8.771 106.16-192.88 5.006-9.096 2.942-5.342 5.007-9.098 5.008 9.098 2.938 5.342 5.007 9.096 129.34 235 4.827 8.773 2.84 5.151 4.826 8.773h-315.46l-2.837 5.154h327.01zm7.666 13.926h-346.68l4.828-8.772 2.836-5.154 4.829-8.773h305.8l-2.834-5.151-4.83-8.773-124.33-225.9-5.005-9.093-2.941-5.344-2.94 5.344-5.009 9.093-101.15 183.78-7.665 13.925-4.828 8.772-2.837 5.152h217.06l-2.84-5.152-4.831-8.772-2.839-5.154-4.832-8.771h-0.05l-61.423-111.6-5.005-9.096-2.941-5.345-5.007-9.096-2.942-5.344-2.94 5.344-5.008 9.096-2.941 5.345-5.007 9.096-61.419 111.59h5.875l58.488-106.25 5.005-9.098 2.94-5.342 5.008-9.099 5.004 9.099 2.944 5.342 5.004 9.098 58.485 106.26 4.826 8.759 1e-3 0.012 2.84 5.154 4.828 8.772h-199.56l4.828-8.772 2.836-5.154 4.829-8.771 98.21-178.44 5.007-9.096 5.008 9.098 121.39 220.56 4.829 8.773h-294.24l4.828-8.773 3.026-5.498 4.827-8.772 2.838-5.152 4.828-8.772 2.835-5.154 4.828-8.771 114.11-207.32 5.005-9.098 2.941-5.341 5.006-9.098 2.942-5.342 5.007-9.095 5.008 9.095 2.938 5.342 5.007 9.098 2.94 5.341 5.008 9.098 137.28 249.43 4.831 8.773 2.835 5.151 4.827 8.773 2.839 5.154 4.826 8.772z"
        fill="#fff"
      />
    </g>
  </g>
</svg>
